<svg width="75" height="76" viewBox="0 0 75 76" fill="none" xmlns="http://www.w3.org/2000/svg">
<g id="Arrow Up Contained 01">
<g id="Icon">
<path d="M37.5 66.5C21.967 66.5 9.375 53.7401 9.375 38C9.375 22.2599 21.967 9.5 37.5 9.5C53.033 9.5 65.625 22.2599 65.625 38C65.625 53.7401 53.033 66.5 37.5 66.5Z" fill="white"/>
<path d="M34.9473 25.404C34.5965 24.9774 33.9663 24.916 33.5397 25.2668C33.1131 25.6176 33.0517 26.2478 33.4025 26.6744L34.9473 25.404ZM44.533 38.6346L45.3053 39.2698C45.6088 38.9007 45.6088 38.3685 45.3053 37.9994L44.533 38.6346ZM33.4025 50.5949C33.0517 51.0214 33.1131 51.6516 33.5397 52.0024C33.9663 52.3532 34.5965 52.2918 34.9473 51.8652L33.4025 50.5949ZM33.4025 26.6744L43.7606 39.2698L45.3053 37.9994L34.9473 25.404L33.4025 26.6744ZM43.7606 37.9994L33.4025 50.5949L34.9473 51.8652L45.3053 39.2698L43.7606 37.9994ZM37.5 65.5C22.5317 65.5 10.375 53.2004 10.375 38L8.375 38C8.375 54.2799 21.4023 67.5 37.5 67.5L37.5 65.5ZM10.375 38C10.375 22.7996 22.5317 10.5 37.5 10.5L37.5 8.5C21.4023 8.5 8.375 21.7201 8.375 38L10.375 38ZM37.5 10.5C52.4683 10.5 64.625 22.7996 64.625 38L66.625 38C66.625 21.7201 53.5977 8.5 37.5 8.5L37.5 10.5ZM64.625 38C64.625 53.2004 52.4683 65.5 37.5 65.5L37.5 67.5C53.5977 67.5 66.625 54.2799 66.625 38L64.625 38Z" fill="black"/>
</g>
</g>
</svg>
